<?xml version="1.0" encoding="UTF-8" standalone="no"?>
<!DOCTYPE svg PUBLIC "-//W3C//DTD SVG 1.1//EN" "http://www.w3.org/Graphics/SVG/1.1/DTD/svg11.dtd">
<svg width="100%" height="100%" viewBox="0 0 753 254" version="1.1" xmlns="http://www.w3.org/2000/svg" xmlns:xlink="http://www.w3.org/1999/xlink" xml:space="preserve" xmlns:serif="http://www.serif.com/" style="fill-rule:evenodd;clip-rule:evenodd;stroke-linecap:round;stroke-linejoin:round;stroke-miterlimit:1.5;">
    <g transform="matrix(1,0,0,1,-163.883,-319.262)">
        <g transform="matrix(3.81869,0,0,3.81869,-909.932,-918.968)">
            <g transform="matrix(50,0,0,50,280.267,369.252)">
                <path d="M0.325,-0.716C0.357,-0.716 0.373,-0.722 0.373,-0.736C0.373,-0.757 0.31,-0.809 0.293,-0.809C0.281,-0.809 0.259,-0.782 0.242,-0.756L0.093,-0.756C0.08,-0.756 0.071,-0.751 0.071,-0.736C0.071,-0.72 0.08,-0.716 0.093,-0.716L0.325,-0.716ZM0.056,-0.638C0.043,-0.638 0.034,-0.633 0.034,-0.618C0.034,-0.602 0.043,-0.598 0.056,-0.598L0.338,-0.598C0.364,-0.598 0.381,-0.604 0.381,-0.618C0.381,-0.639 0.323,-0.692 0.306,-0.692C0.293,-0.692 0.272,-0.664 0.255,-0.638L0.056,-0.638ZM0.306,-0.35C0.337,-0.35 0.352,-0.356 0.352,-0.369C0.351,-0.389 0.291,-0.439 0.275,-0.439C0.263,-0.439 0.243,-0.414 0.226,-0.39L0.096,-0.39C0.083,-0.39 0.074,-0.385 0.074,-0.37C0.074,-0.354 0.083,-0.35 0.096,-0.35L0.306,-0.35ZM0.305,-0.477C0.336,-0.477 0.352,-0.483 0.351,-0.496C0.351,-0.516 0.291,-0.566 0.274,-0.566C0.263,-0.566 0.243,-0.541 0.226,-0.517L0.098,-0.517C0.085,-0.517 0.076,-0.512 0.076,-0.497C0.076,-0.481 0.085,-0.477 0.098,-0.477L0.305,-0.477ZM0.144,-0.095L0.144,-0.112C0.144,-0.133 0.145,-0.2 0.146,-0.223L0.252,-0.223C0.252,-0.192 0.251,-0.137 0.251,-0.095L0.144,-0.095ZM0.164,-0.263C0.142,-0.279 0.104,-0.293 0.088,-0.295C0.079,-0.297 0.072,-0.291 0.073,-0.283C0.082,-0.197 0.077,-0.042 0.077,0.021C0.077,0.038 0.086,0.048 0.102,0.048C0.13,0.048 0.145,0.039 0.145,0.017L0.144,-0.055L0.25,-0.055L0.25,-0.041C0.25,-0.025 0.256,-0.007 0.279,-0.007C0.306,-0.007 0.32,-0.014 0.32,-0.045C0.32,-0.071 0.319,-0.157 0.32,-0.205C0.339,-0.212 0.358,-0.221 0.358,-0.235C0.358,-0.258 0.299,-0.302 0.279,-0.302C0.268,-0.302 0.25,-0.282 0.236,-0.263L0.164,-0.263ZM0.671,-0.448L0.671,-0.547L0.767,-0.547C0.797,-0.547 0.811,-0.552 0.811,-0.565C0.811,-0.584 0.754,-0.632 0.738,-0.632C0.727,-0.632 0.709,-0.609 0.693,-0.587L0.671,-0.587L0.671,-0.657C0.692,-0.662 0.704,-0.668 0.704,-0.68C0.704,-0.7 0.636,-0.705 0.619,-0.705C0.61,-0.705 0.604,-0.7 0.605,-0.69C0.607,-0.667 0.608,-0.629 0.609,-0.587L0.519,-0.587C0.506,-0.587 0.497,-0.582 0.497,-0.567C0.497,-0.551 0.506,-0.547 0.519,-0.547L0.609,-0.547C0.608,-0.512 0.608,-0.477 0.607,-0.448L0.517,-0.448C0.504,-0.448 0.495,-0.443 0.495,-0.428C0.495,-0.412 0.504,-0.408 0.517,-0.408L0.78,-0.408C0.81,-0.408 0.824,-0.413 0.824,-0.426C0.824,-0.445 0.767,-0.493 0.751,-0.493C0.74,-0.493 0.722,-0.47 0.706,-0.448L0.671,-0.448ZM0.591,-0.169L0.591,-0.188C0.591,-0.209 0.591,-0.26 0.593,-0.284L0.703,-0.284C0.703,-0.255 0.703,-0.209 0.702,-0.169L0.591,-0.169ZM0.615,-0.324C0.596,-0.34 0.557,-0.356 0.538,-0.359C0.529,-0.361 0.522,-0.355 0.523,-0.347C0.532,-0.264 0.527,-0.13 0.527,-0.069C0.527,-0.052 0.535,-0.042 0.551,-0.042C0.578,-0.042 0.591,-0.052 0.591,-0.073L0.591,-0.129L0.701,-0.129L0.701,-0.097C0.701,-0.081 0.707,-0.063 0.729,-0.063C0.754,-0.063 0.768,-0.07 0.768,-0.101C0.768,-0.126 0.767,-0.226 0.768,-0.272C0.784,-0.278 0.799,-0.287 0.799,-0.3C0.799,-0.321 0.746,-0.362 0.727,-0.362C0.717,-0.362 0.7,-0.342 0.687,-0.324L0.615,-0.324ZM0.487,-0.768C0.464,-0.783 0.425,-0.799 0.412,-0.801C0.399,-0.803 0.394,-0.799 0.395,-0.788C0.408,-0.647 0.409,-0.492 0.408,-0.388C0.406,-0.192 0.379,-0.062 0.311,0.037C0.294,0.062 0.319,0.077 0.336,0.063C0.453,-0.033 0.468,-0.213 0.472,-0.373C0.475,-0.484 0.476,-0.618 0.473,-0.728L0.847,-0.728L0.847,-0.382C0.847,-0.281 0.849,-0.137 0.845,-0.068C0.843,-0.038 0.833,-0.028 0.807,-0.028C0.785,-0.028 0.748,-0.033 0.739,-0.033C0.72,-0.033 0.716,-0.007 0.737,-0C0.803,0.018 0.782,0.061 0.819,0.061C0.857,0.061 0.912,0.036 0.912,-0.029C0.913,-0.251 0.911,-0.536 0.916,-0.704C0.936,-0.712 0.954,-0.722 0.954,-0.734C0.954,-0.753 0.89,-0.806 0.866,-0.806C0.859,-0.806 0.842,-0.787 0.827,-0.768L0.487,-0.768Z" style="fill-rule:nonzero;"/>
            </g>
            <g transform="matrix(50,0,0,50,330.267,369.252)">
                <path d="M0.839,-0.556C0.812,-0.556 0.771,-0.54 0.746,-0.545C0.728,-0.549 0.715,-0.555 0.703,-0.574C0.699,-0.604 0.695,-0.634 0.69,-0.664C0.68,-0.728 0.66,-0.747 0.591,-0.747C0.569,-0.747 0.558,-0.737 0.558,-0.724C0.558,-0.704 0.581,-0.693 0.605,-0.665C0.635,-0.631 0.645,-0.559 0.649,-0.509C0.596,-0.501 0.523,-0.495 0.473,-0.493C0.43,-0.491 0.415,-0.465 0.387,-0.429C0.345,-0.376 0.289,-0.279 0.253,-0.233C0.238,-0.212 0.227,-0.219 0.223,-0.234C0.219,-0.25 0.217,-0.276 0.217,-0.3C0.217,-0.395 0.28,-0.53 0.3,-0.58C0.333,-0.662 0.282,-0.731 0.203,-0.759C0.184,-0.766 0.174,-0.753 0.182,-0.739C0.216,-0.681 0.233,-0.668 0.222,-0.601C0.204,-0.484 0.158,-0.397 0.158,-0.267C0.158,-0.189 0.184,-0.107 0.238,-0.055C0.261,-0.033 0.293,-0.03 0.302,-0.045C0.316,-0.068 0.291,-0.092 0.291,-0.153C0.291,-0.204 0.391,-0.365 0.424,-0.407C0.44,-0.427 0.457,-0.441 0.487,-0.441C0.537,-0.441 0.598,-0.442 0.653,-0.447C0.656,-0.396 0.658,-0.336 0.649,-0.266C0.635,-0.15 0.598,-0.08 0.469,-0.004C0.449,0.008 0.459,0.031 0.48,0.025C0.661,-0.024 0.695,-0.142 0.711,-0.231C0.724,-0.301 0.724,-0.377 0.717,-0.455C0.771,-0.464 0.816,-0.475 0.854,-0.495C0.891,-0.514 0.881,-0.556 0.839,-0.556ZM0.753,-0.735C0.736,-0.736 0.729,-0.72 0.741,-0.708C0.761,-0.689 0.784,-0.668 0.801,-0.648C0.824,-0.621 0.831,-0.604 0.854,-0.604C0.871,-0.604 0.888,-0.616 0.888,-0.639C0.888,-0.686 0.818,-0.73 0.753,-0.735ZM0.832,-0.818C0.813,-0.818 0.806,-0.801 0.822,-0.789C0.844,-0.773 0.874,-0.751 0.896,-0.727C0.915,-0.706 0.925,-0.698 0.94,-0.698C0.96,-0.698 0.973,-0.712 0.973,-0.733C0.973,-0.784 0.896,-0.817 0.832,-0.818Z" style="fill-rule:nonzero;"/>
            </g>
            <g transform="matrix(50,0,0,50,380.267,369.252)">
                <path d="M0.171,-0.406C0.155,-0.416 0.143,-0.409 0.143,-0.392C0.143,-0.345 0.192,-0.283 0.235,-0.283C0.268,-0.283 0.301,-0.293 0.346,-0.3C0.393,-0.308 0.604,-0.333 0.682,-0.333C0.757,-0.333 0.776,-0.328 0.813,-0.328C0.844,-0.328 0.854,-0.341 0.854,-0.356C0.854,-0.399 0.791,-0.422 0.75,-0.422C0.71,-0.422 0.687,-0.412 0.602,-0.401C0.533,-0.392 0.31,-0.369 0.257,-0.369C0.222,-0.369 0.195,-0.391 0.171,-0.406Z" style="fill-rule:nonzero;"/>
            </g>
            <g transform="matrix(50,0,0,50,430.267,369.252)">
                <path d="M0.312,-0.269C0.3,-0.229 0.283,-0.206 0.249,-0.206C0.215,-0.206 0.191,-0.224 0.191,-0.252C0.191,-0.296 0.247,-0.353 0.296,-0.353C0.331,-0.353 0.322,-0.301 0.312,-0.269ZM0.342,-0.565C0.302,-0.558 0.254,-0.555 0.224,-0.555C0.168,-0.555 0.159,-0.573 0.114,-0.606C0.103,-0.614 0.094,-0.611 0.094,-0.597C0.094,-0.547 0.132,-0.488 0.191,-0.488C0.239,-0.488 0.292,-0.495 0.341,-0.504C0.341,-0.47 0.34,-0.435 0.338,-0.401C0.333,-0.402 0.328,-0.402 0.323,-0.402C0.237,-0.402 0.141,-0.321 0.141,-0.243C0.141,-0.177 0.215,-0.14 0.289,-0.148C0.287,-0.128 0.286,-0.105 0.286,-0.092C0.286,-0.018 0.339,0.012 0.453,0.012C0.608,0.012 0.692,-0.037 0.692,-0.123C0.692,-0.202 0.668,-0.277 0.69,-0.378C0.702,-0.432 0.727,-0.488 0.774,-0.488C0.825,-0.488 0.862,-0.444 0.862,-0.417C0.862,-0.4 0.862,-0.39 0.836,-0.375C0.809,-0.359 0.784,-0.346 0.759,-0.334C0.736,-0.323 0.737,-0.305 0.767,-0.303C0.804,-0.301 0.863,-0.308 0.891,-0.316C0.924,-0.325 0.943,-0.34 0.943,-0.376C0.943,-0.456 0.863,-0.534 0.779,-0.534C0.69,-0.534 0.654,-0.446 0.638,-0.382C0.618,-0.301 0.627,-0.203 0.618,-0.142C0.608,-0.075 0.528,-0.057 0.445,-0.057C0.368,-0.057 0.343,-0.071 0.343,-0.111C0.343,-0.198 0.398,-0.235 0.398,-0.318C0.398,-0.344 0.393,-0.362 0.386,-0.374C0.388,-0.414 0.393,-0.468 0.397,-0.516C0.44,-0.526 0.477,-0.536 0.5,-0.544C0.545,-0.559 0.579,-0.575 0.579,-0.602C0.579,-0.619 0.565,-0.63 0.544,-0.63C0.524,-0.63 0.499,-0.616 0.473,-0.608C0.432,-0.595 0.418,-0.596 0.406,-0.619C0.411,-0.664 0.416,-0.704 0.416,-0.722C0.416,-0.75 0.365,-0.767 0.344,-0.767C0.322,-0.767 0.284,-0.755 0.284,-0.738C0.284,-0.718 0.314,-0.712 0.33,-0.694C0.342,-0.681 0.342,-0.669 0.342,-0.638L0.342,-0.565Z" style="fill-rule:nonzero;"/>
            </g>
        </g>
        <g transform="matrix(1,0,0,1,-4.46557,0)">
            <g transform="matrix(1,0,0,1,54.5402,-8.82069)">
                <g transform="matrix(50,0,0,50,377.905,562.016)">
                    <path d="M0.196,-0.29C0.158,-0.305 0.128,-0.323 0.128,-0.369C0.128,-0.403 0.145,-0.437 0.204,-0.437C0.244,-0.437 0.276,-0.422 0.29,-0.394C0.3,-0.375 0.304,-0.359 0.307,-0.343C0.312,-0.316 0.343,-0.321 0.343,-0.354C0.343,-0.42 0.351,-0.47 0.353,-0.48C0.356,-0.496 0.338,-0.497 0.326,-0.488C0.32,-0.484 0.315,-0.476 0.308,-0.471C0.305,-0.469 0.304,-0.468 0.297,-0.47C0.292,-0.473 0.26,-0.481 0.231,-0.481C0.197,-0.481 0.151,-0.474 0.111,-0.443C0.074,-0.415 0.056,-0.378 0.056,-0.339C0.056,-0.27 0.112,-0.237 0.15,-0.222C0.179,-0.211 0.217,-0.197 0.246,-0.185C0.279,-0.169 0.299,-0.147 0.299,-0.111C0.299,-0.057 0.27,-0.03 0.212,-0.03C0.151,-0.03 0.116,-0.056 0.098,-0.097C0.094,-0.108 0.086,-0.13 0.084,-0.136C0.075,-0.166 0.044,-0.16 0.047,-0.129C0.052,-0.079 0.055,-0.041 0.055,-0.006C0.055,0.022 0.08,0.015 0.091,0.002C0.097,-0.006 0.102,-0.004 0.108,-0.001C0.119,0.004 0.147,0.015 0.189,0.015C0.222,0.015 0.263,0.007 0.297,-0.014C0.355,-0.051 0.377,-0.097 0.377,-0.147C0.377,-0.208 0.33,-0.24 0.284,-0.259L0.196,-0.29Z" style="fill-rule:nonzero;"/>
                </g>
                <g transform="matrix(50,0,0,50,398.305,562.016)">
                    <path d="M0.179,-0.359C0.204,-0.389 0.242,-0.414 0.292,-0.414C0.358,-0.414 0.406,-0.385 0.406,-0.283L0.406,-0.16C0.406,-0.099 0.405,-0.079 0.404,-0.07C0.402,-0.048 0.394,-0.041 0.36,-0.033C0.328,-0.026 0.332,0.002 0.365,0.002C0.404,0.002 0.419,-0 0.447,-0C0.472,-0 0.503,0.002 0.524,0.002C0.562,0.002 0.559,-0.028 0.525,-0.034C0.49,-0.041 0.484,-0.05 0.483,-0.07C0.482,-0.086 0.482,-0.094 0.482,-0.105L0.482,-0.321C0.482,-0.405 0.436,-0.481 0.34,-0.481C0.315,-0.481 0.286,-0.474 0.26,-0.459C0.237,-0.446 0.205,-0.425 0.182,-0.405C0.176,-0.4 0.174,-0.402 0.174,-0.406L0.174,-0.667C0.174,-0.721 0.175,-0.756 0.182,-0.785C0.184,-0.794 0.179,-0.804 0.169,-0.804C0.162,-0.804 0.152,-0.801 0.135,-0.791C0.102,-0.772 0.068,-0.765 0.041,-0.761C0.007,-0.757 0.014,-0.729 0.036,-0.727C0.088,-0.716 0.094,-0.711 0.096,-0.689C0.098,-0.666 0.098,-0.645 0.098,-0.579L0.098,-0.184C0.098,-0.133 0.098,-0.114 0.096,-0.078C0.094,-0.045 0.086,-0.04 0.056,-0.034C0.019,-0.028 0.019,0.002 0.056,0.002C0.08,0.002 0.098,-0 0.136,-0C0.173,-0 0.197,0.002 0.22,0.002C0.25,0.002 0.254,-0.028 0.22,-0.034C0.18,-0.042 0.178,-0.05 0.176,-0.077C0.175,-0.089 0.174,-0.119 0.174,-0.171L0.174,-0.332C0.174,-0.348 0.174,-0.353 0.179,-0.359Z" style="fill-rule:nonzero;"/>
                </g>
                <g transform="matrix(50,0,0,50,427.305,562.016)">
                    <path d="M0.141,-0C0.177,-0 0.201,0.002 0.226,0.002C0.261,0.002 0.261,-0.03 0.23,-0.035C0.184,-0.044 0.18,-0.052 0.18,-0.099L0.18,-0.331C0.18,-0.417 0.185,-0.435 0.188,-0.459C0.19,-0.474 0.184,-0.481 0.174,-0.481C0.165,-0.481 0.158,-0.476 0.149,-0.471C0.121,-0.455 0.091,-0.444 0.064,-0.44C0.04,-0.436 0.041,-0.414 0.059,-0.407C0.099,-0.391 0.102,-0.387 0.103,-0.371C0.105,-0.36 0.105,-0.347 0.105,-0.326L0.105,-0.094C0.105,-0.052 0.099,-0.044 0.056,-0.035C0.024,-0.029 0.025,0.002 0.059,0.002C0.077,0.002 0.113,-0 0.141,-0ZM0.143,-0.723C0.111,-0.723 0.087,-0.697 0.087,-0.663C0.087,-0.631 0.109,-0.607 0.14,-0.607C0.176,-0.607 0.196,-0.636 0.196,-0.668C0.196,-0.702 0.168,-0.723 0.143,-0.723Z" style="fill-rule:nonzero;"/>
                </g>
                <g transform="matrix(50,0,0,50,441.205,562.016)">
                    <path d="M0.327,-0.481C0.295,-0.481 0.265,-0.465 0.182,-0.383C0.182,-0.411 0.179,-0.448 0.176,-0.462C0.174,-0.473 0.169,-0.481 0.161,-0.481C0.155,-0.481 0.151,-0.479 0.144,-0.475C0.117,-0.459 0.083,-0.442 0.053,-0.429C0.037,-0.422 0.037,-0.405 0.053,-0.399C0.091,-0.387 0.101,-0.38 0.102,-0.365C0.105,-0.356 0.105,-0.332 0.105,-0.299L0.105,-0.135C0.105,-0.11 0.105,-0.089 0.102,-0.072C0.1,-0.048 0.098,-0.044 0.056,-0.033C0.029,-0.026 0.032,0.002 0.059,0.002C0.083,0.002 0.109,-0 0.152,-0C0.195,-0 0.23,0.002 0.251,0.002C0.279,0.002 0.283,-0.026 0.253,-0.032C0.195,-0.043 0.186,-0.047 0.184,-0.076C0.183,-0.091 0.182,-0.111 0.182,-0.136L0.182,-0.333C0.182,-0.34 0.183,-0.342 0.187,-0.348C0.219,-0.385 0.248,-0.396 0.273,-0.396C0.297,-0.396 0.311,-0.386 0.326,-0.371C0.341,-0.354 0.343,-0.352 0.352,-0.352C0.362,-0.352 0.371,-0.363 0.374,-0.371C0.382,-0.383 0.388,-0.403 0.388,-0.424C0.388,-0.465 0.352,-0.481 0.327,-0.481Z" style="fill-rule:nonzero;"/>
                </g>
                <g transform="matrix(50,0,0,50,461.205,562.016)">
                    <path d="M0.326,-0.25C0.311,-0.251 0.297,-0.252 0.287,-0.252C0.174,-0.252 0.043,-0.201 0.043,-0.109C0.043,-0.018 0.11,0.015 0.15,0.015C0.196,0.015 0.249,-0.007 0.321,-0.068C0.323,-0.018 0.327,0.01 0.359,0.011C0.393,0.012 0.431,0.002 0.454,-0.013C0.475,-0.025 0.475,-0.052 0.454,-0.051C0.435,-0.051 0.406,-0.05 0.397,-0.066C0.395,-0.069 0.394,-0.076 0.394,-0.086C0.394,-0.098 0.397,-0.253 0.397,-0.318C0.397,-0.383 0.374,-0.481 0.255,-0.481C0.22,-0.481 0.132,-0.443 0.081,-0.403C0.07,-0.394 0.067,-0.385 0.067,-0.373C0.067,-0.358 0.07,-0.342 0.077,-0.328C0.09,-0.298 0.113,-0.304 0.121,-0.325C0.13,-0.347 0.135,-0.375 0.145,-0.394C0.155,-0.414 0.174,-0.428 0.213,-0.428C0.262,-0.428 0.322,-0.4 0.326,-0.301L0.326,-0.25ZM0.326,-0.144C0.326,-0.122 0.322,-0.117 0.314,-0.108C0.27,-0.058 0.233,-0.05 0.202,-0.05C0.146,-0.05 0.125,-0.085 0.125,-0.124C0.125,-0.176 0.171,-0.208 0.24,-0.209C0.282,-0.21 0.303,-0.208 0.319,-0.205C0.323,-0.204 0.326,-0.204 0.326,-0.198L0.326,-0.144Z" style="fill-rule:nonzero;"/>
                </g>
                <g transform="matrix(50,0,0,50,485.255,562.016)">
                    <path d="M0.234,-0.179C0.15,-0.179 0.121,-0.249 0.121,-0.312C0.121,-0.389 0.149,-0.433 0.216,-0.433C0.29,-0.433 0.329,-0.378 0.329,-0.298C0.329,-0.217 0.295,-0.179 0.234,-0.179ZM0.188,0.013C0.23,0.017 0.252,0.02 0.284,0.023C0.359,0.032 0.397,0.064 0.397,0.119C0.397,0.189 0.342,0.24 0.262,0.24C0.15,0.24 0.097,0.176 0.097,0.129C0.097,0.113 0.1,0.096 0.12,0.072C0.141,0.047 0.16,0.029 0.178,0.012L0.188,0.013ZM0.462,-0.417C0.471,-0.428 0.481,-0.447 0.486,-0.462C0.492,-0.479 0.48,-0.493 0.462,-0.476C0.444,-0.459 0.431,-0.448 0.41,-0.448C0.382,-0.448 0.358,-0.454 0.312,-0.47C0.288,-0.477 0.266,-0.481 0.243,-0.481C0.219,-0.481 0.178,-0.473 0.135,-0.447C0.092,-0.42 0.045,-0.369 0.045,-0.289C0.045,-0.217 0.088,-0.157 0.152,-0.137C0.134,-0.121 0.095,-0.088 0.081,-0.072C0.078,-0.067 0.079,-0.056 0.083,-0.047C0.09,-0.029 0.106,-0.008 0.142,0.004C0.104,0.036 0.055,0.082 0.035,0.107C0.024,0.12 0.02,0.135 0.02,0.145C0.02,0.209 0.08,0.295 0.215,0.295C0.275,0.295 0.323,0.276 0.371,0.243C0.408,0.218 0.469,0.158 0.469,0.077C0.469,0.002 0.419,-0.041 0.321,-0.05C0.283,-0.053 0.241,-0.055 0.217,-0.057C0.187,-0.061 0.162,-0.068 0.162,-0.088C0.162,-0.098 0.172,-0.114 0.187,-0.13L0.199,-0.13C0.262,-0.13 0.318,-0.158 0.356,-0.197C0.395,-0.238 0.403,-0.278 0.403,-0.332C0.403,-0.344 0.396,-0.378 0.389,-0.394C0.405,-0.395 0.429,-0.396 0.444,-0.402C0.452,-0.405 0.455,-0.407 0.462,-0.417Z" style="fill-rule:nonzero;"/>
                </g>
                <g transform="matrix(50,0,0,50,509.455,562.016)">
                    <path d="M0.326,-0.25C0.311,-0.251 0.297,-0.252 0.287,-0.252C0.174,-0.252 0.043,-0.201 0.043,-0.109C0.043,-0.018 0.11,0.015 0.15,0.015C0.196,0.015 0.249,-0.007 0.321,-0.068C0.323,-0.018 0.327,0.01 0.359,0.011C0.393,0.012 0.431,0.002 0.454,-0.013C0.475,-0.025 0.475,-0.052 0.454,-0.051C0.435,-0.051 0.406,-0.05 0.397,-0.066C0.395,-0.069 0.394,-0.076 0.394,-0.086C0.394,-0.098 0.397,-0.253 0.397,-0.318C0.397,-0.383 0.374,-0.481 0.255,-0.481C0.22,-0.481 0.132,-0.443 0.081,-0.403C0.07,-0.394 0.067,-0.385 0.067,-0.373C0.067,-0.358 0.07,-0.342 0.077,-0.328C0.09,-0.298 0.113,-0.304 0.121,-0.325C0.13,-0.347 0.135,-0.375 0.145,-0.394C0.155,-0.414 0.174,-0.428 0.213,-0.428C0.262,-0.428 0.322,-0.4 0.326,-0.301L0.326,-0.25ZM0.326,-0.144C0.326,-0.122 0.322,-0.117 0.314,-0.108C0.27,-0.058 0.233,-0.05 0.202,-0.05C0.146,-0.05 0.125,-0.085 0.125,-0.124C0.125,-0.176 0.171,-0.208 0.24,-0.209C0.282,-0.21 0.303,-0.208 0.319,-0.205C0.323,-0.204 0.326,-0.204 0.326,-0.198L0.326,-0.144Z" style="fill-rule:nonzero;"/>
                </g>
                <g transform="matrix(50,0,0,50,534.055,562.016)">
                    <path d="M0.465,-0.399C0.447,-0.443 0.409,-0.481 0.349,-0.481C0.301,-0.481 0.276,-0.465 0.257,-0.452C0.219,-0.424 0.191,-0.404 0.18,-0.395C0.18,-0.421 0.177,-0.452 0.175,-0.464C0.173,-0.474 0.167,-0.481 0.16,-0.481C0.153,-0.481 0.146,-0.477 0.138,-0.471C0.12,-0.459 0.098,-0.446 0.054,-0.428C0.037,-0.422 0.039,-0.404 0.054,-0.398C0.095,-0.386 0.101,-0.375 0.102,-0.364C0.105,-0.35 0.105,-0.331 0.105,-0.309L0.105,-0.162C0.105,-0.124 0.106,-0.091 0.103,-0.074C0.099,-0.046 0.094,-0.043 0.05,-0.033C0.023,-0.028 0.024,0.002 0.053,0.002C0.078,0.002 0.113,-0 0.141,-0C0.168,-0 0.217,0.002 0.235,0.002C0.264,0.002 0.266,-0.029 0.241,-0.033C0.191,-0.043 0.185,-0.051 0.183,-0.078C0.182,-0.089 0.18,-0.114 0.18,-0.152L0.18,-0.337C0.18,-0.345 0.18,-0.349 0.185,-0.354C0.21,-0.386 0.251,-0.413 0.297,-0.413C0.365,-0.413 0.407,-0.381 0.407,-0.273L0.407,-0.14C0.407,-0.101 0.406,-0.08 0.405,-0.07C0.403,-0.051 0.4,-0.044 0.352,-0.034C0.321,-0.029 0.325,0.002 0.355,0.002C0.375,0.002 0.411,-0 0.438,-0C0.465,-0 0.514,0.002 0.529,0.002C0.558,0.002 0.561,-0.026 0.531,-0.033C0.485,-0.044 0.482,-0.048 0.482,-0.088L0.482,-0.317C0.482,-0.332 0.48,-0.354 0.477,-0.362C0.477,-0.364 0.479,-0.366 0.481,-0.37C0.512,-0.398 0.547,-0.413 0.587,-0.413C0.652,-0.413 0.696,-0.381 0.696,-0.279L0.696,-0.167C0.696,-0.102 0.694,-0.075 0.692,-0.063C0.69,-0.052 0.682,-0.042 0.638,-0.033C0.609,-0.028 0.612,0.002 0.64,0.002C0.658,0.002 0.716,-0 0.736,-0C0.774,-0 0.799,0.002 0.821,0.002C0.85,0.002 0.853,-0.026 0.825,-0.033C0.783,-0.043 0.777,-0.044 0.774,-0.064C0.773,-0.072 0.772,-0.087 0.772,-0.128L0.772,-0.317C0.772,-0.403 0.725,-0.481 0.633,-0.481C0.609,-0.481 0.576,-0.476 0.546,-0.457C0.519,-0.439 0.484,-0.415 0.465,-0.399Z" style="fill-rule:nonzero;"/>
                </g>
                <g transform="matrix(50,0,0,50,577.555,562.016)">
                    <path d="M0.124,-0.307C0.135,-0.395 0.182,-0.431 0.235,-0.431C0.29,-0.431 0.351,-0.393 0.354,-0.316C0.354,-0.311 0.353,-0.307 0.349,-0.305C0.325,-0.3 0.261,-0.296 0.167,-0.296C0.155,-0.296 0.136,-0.297 0.13,-0.298C0.125,-0.299 0.124,-0.301 0.124,-0.307ZM0.121,-0.25C0.312,-0.25 0.363,-0.261 0.403,-0.272C0.421,-0.277 0.441,-0.29 0.441,-0.308C0.441,-0.317 0.436,-0.32 0.43,-0.323C0.429,-0.385 0.385,-0.481 0.268,-0.481C0.213,-0.481 0.164,-0.455 0.128,-0.424C0.086,-0.386 0.042,-0.321 0.042,-0.224C0.042,-0.088 0.123,0.013 0.239,0.013C0.336,0.013 0.399,-0.042 0.414,-0.056C0.439,-0.081 0.43,-0.109 0.399,-0.09C0.378,-0.078 0.347,-0.054 0.287,-0.054C0.19,-0.054 0.123,-0.117 0.121,-0.25Z" style="fill-rule:nonzero;"/>
                </g>
            </g>
            <g transform="matrix(1,0,0,1,0,6.39983)">
                <path d="M169.705,536.171L392.264,536.171" style="fill:none;stroke:rgb(134,128,128);stroke-width:2.71px;"/>
            </g>
            <g transform="matrix(1,0,0,1,526.962,6.39983)">
                <path d="M169.705,536.171L392.264,536.171" style="fill:none;stroke:rgb(134,128,128);stroke-width:2.71px;"/>
            </g>
        </g>
    </g>
</svg>
