<?xml version="1.0" encoding="UTF-8" standalone="no"?><!DOCTYPE svg PUBLIC "-//W3C//DTD SVG 1.1//EN" "http://www.w3.org/Graphics/SVG/1.1/DTD/svg11.dtd"><svg width="100%" height="100%" viewBox="0 0 565 190" version="1.1" xmlns="http://www.w3.org/2000/svg" xmlns:xlink="http://www.w3.org/1999/xlink" xml:space="preserve" xmlns:serif="http://www.serif.com/" style="fill-rule:evenodd;clip-rule:evenodd;stroke-linecap:round;stroke-linejoin:round;stroke-miterlimit:1.5;"><g><path d="M44.29,11.877c2.005,0 3.295,-0.713 3.725,-2.282c-4.297,-3.858 -11.013,-9.443 -11.013,-9.443l-6.156,7.589l-22.769,0l1.145,4.136l35.068,0Zm-7.431,13.908l-34.51,0l1.146,3.992l46.952,0c1.718,0 3.15,-0.57 3.58,-2.139c-4.153,-4.004 -11.166,-9.596 -11.166,-9.596l-6.002,7.743Zm-28.782,18.043l1.145,4.279l34.925,0c1.86,0 3.149,-0.713 3.579,-2.282c-3.865,-3.861 -10.153,-8.736 -10.153,-8.736l-5.585,6.739l-23.911,0Zm36.07,22.465c1.86,0 3.149,-0.713 3.579,-2.138c-3.865,-3.718 -10.153,-8.879 -10.153,-8.879l-5.585,7.025l-23.911,0l1.145,3.992l34.925,0Zm-26.923,45.699l0,-27.083l18.777,0l0,27.083l-18.777,0Zm27.351,-25.506c2.864,-0.574 5.156,-1.719 6.015,-2.718l-11.159,-8.442l-4.863,5.305l-16.627,0l-9.291,-4.158l0,52.542l1.286,0c3.715,0 7.288,-2.005 7.288,-3.007l0,-9.881l18.777,0l0,7.303l1.286,0c2.858,0 7.146,-2.148 7.288,-3.15l0,-33.794Zm58.439,-34.209l-8.023,0l0,-16.772l16.746,0c1.861,0 3.15,-0.713 3.58,-2.281c-3.58,-3.574 -9.303,-8.59 -9.303,-8.59l-5.286,6.736l-5.737,0l0,-11.751c3.156,-0.583 4.16,-1.748 4.446,-3.641l-12.752,-1.3l0,16.692l-16.038,0l1.146,4.135l14.892,0l0,16.772l-17.9,0l1.146,3.992l44.383,0c2.005,0 3.294,-0.713 3.724,-2.281c-3.867,-3.718 -9.738,-9.022 -9.738,-9.022l-5.286,7.311Zm-2.429,19.315l0,24.505l-17.918,0l0,-24.505l17.918,0Zm0,28.64l0,7.593l1.143,0c2.715,0 6.715,-2.006 6.715,-3.009l0,-31.791c2.582,-0.574 4.877,-1.576 5.737,-2.717l-10.309,-7.722l-4.719,4.871l-15.768,0l-8.575,-3.868l0,47.388l1.143,0c3.286,0 6.715,-2.006 6.715,-2.722l0,-8.023l17.918,0Zm22.047,-98.361l-4.436,5.728l-50.125,0l-10.312,-4.44l0,48.97c0,26.914 -1.146,54.693 -14.32,76.752l2.291,1.432c19.475,-21.772 20.621,-53.276 20.621,-78.327l0,-40.109l53.28,0l0,103.828c0,2.292 -0.861,3.152 -3.586,3.152c-2.869,0 -17.18,-1.146 -17.18,-1.146l0.002,2.291c6.29,0.86 10.006,2.005 12.01,3.724c1.88,1.288 2.596,3.723 3.026,6.587c13.016,-1.432 14.588,-6.158 14.588,-13.604l0,-103.256c2.578,-0.573 5.012,-1.576 5.871,-2.86l-11.73,-8.722Z" style="fill-rule:nonzero;"/><path d="M248.646,11.17c5.585,4.869 8.449,9.165 10.74,12.888c2.577,3.866 3.866,7.303 6.014,7.446c2.148,0.143 3.723,-1.002 3.723,-3.293c0.287,-2.864 -0.859,-5.585 -4.009,-9.022c-3.294,-3.723 -7.733,-6.874 -14.463,-10.311l-2.005,2.292Zm-63.295,54.989c-4.01,9.881 -10.597,25.919 -13.031,30.072c-1.146,2.291 -2.292,2.148 -3.437,0c-1.575,-3.294 -3.007,-8.449 -3.007,-16.611c0,-12.459 5.298,-26.349 9.451,-35.514c2.005,-4.439 4.296,-8.592 4.296,-11.743c0,-6.3 -6.731,-13.317 -9.881,-15.752c-2.148,-1.575 -4.153,-2.721 -7.59,-4.153l-2.004,2.148c5.441,5.729 8.592,10.168 8.592,15.466c0,9.881 -9.452,32.22 -9.452,50.407c0,18.902 4.726,29.643 8.736,35.943c1.718,2.864 4.009,5.156 6.873,5.156c2.291,0 4.153,-1.289 4.153,-3.867c0,-4.869 -2.148,-6.587 -2.148,-10.883c0,-3.151 0.716,-6.444 1.575,-9.738c1.432,-4.869 6.588,-19.618 10.024,-29.356l-3.15,-1.575Zm38.091,-49.261c3.151,0.286 7.16,0.573 9.452,1.432c2.148,0.573 3.007,1.432 3.293,4.582c0.43,4.01 1.003,14.463 1.432,23.055c-5.441,1.146 -11.169,2.005 -16.038,2.005c-8.019,0 -14.32,-2.577 -22.196,-7.876l-1.862,2.578c7.303,9.881 15.323,13.031 23.771,13.031c5.728,0 11.313,-0.573 16.755,-1.432c0.573,14.177 1.432,33.509 -3.723,45.252c-5.442,13.747 -14.464,20.621 -27.352,27.494l1.719,3.007c15.179,-5.298 27.208,-12.028 33.795,-26.349c6.444,-13.174 5.012,-35.943 4.153,-50.979c8.162,-1.862 15.036,-4.296 19.189,-6.158c2.864,-1.289 4.009,-2.577 4.009,-4.869c0,-2.864 -4.296,-4.296 -7.303,-4.296c-1.145,0 -2.577,1.432 -8.162,3.724c-2.148,0.859 -5.012,1.861 -8.163,2.72c-0.286,-5.871 -0.429,-11.599 -0.286,-14.892c0,-5.156 2.148,-7.733 2.148,-10.024c0,-3.724 -8.879,-7.447 -14.32,-7.447c-2.578,0 -7.447,1.146 -10.597,2.434l0.286,3.008Zm36.373,-14.464c6.015,4.726 8.879,8.306 11.313,11.6c2.578,3.723 4.44,7.303 6.444,7.303c2.148,0 3.437,-1.146 3.58,-3.294c0.144,-3.007 -1.145,-5.728 -4.582,-9.021c-3.437,-3.437 -7.733,-6.015 -14.607,-9.022l-2.148,2.434Z" style="fill-rule:nonzero;"/><path d="M297.907,59.285c0.143,2.864 0.286,5.299 1.289,8.019c2.004,4.869 8.735,11.886 12.745,11.886c4.152,0 5.728,-2.148 13.89,-3.007c10.74,-1.289 50.98,-3.437 60.001,-3.437c8.735,0 13.748,0.286 18.76,0.286c4.868,0 6.3,-1.575 6.3,-4.152c0,-3.867 -6.444,-6.301 -11.885,-6.301c-3.724,0 -7.733,0.859 -17.328,1.575c-6.587,0.286 -56.707,3.58 -69.452,3.58c-6.014,0 -8.306,-4.439 -11.456,-9.308l-2.864,0.859Z" style="fill-rule:nonzero;"/><path d="M461.299,87.066c-4.869,0 -9.308,-4.725 -9.308,-10.597c0,-7.017 4.01,-16.038 12.602,-16.038c4.009,0 6.587,2.291 6.587,7.589c0,11.6 -1.718,19.046 -9.881,19.046Zm-23.342,-58.999c4.869,10.454 8.592,14.464 18.473,14.464c5.299,0 10.597,-0.573 15.609,-1.289c-0.429,4.869 -0.716,9.738 -1.145,14.177c-1.289,-0.143 -2.578,-0.287 -4.01,-0.287c-12.888,0 -21.337,12.029 -21.337,23.199c0,8.735 7.876,17.614 17.184,17.614l1.432,0c-0.859,4.009 -1.432,7.876 -1.432,12.315c0,14.177 12.459,17.614 33.366,17.614c21.623,0 42.674,-7.16 42.674,-18.187c0,-5.012 -2.721,-6.301 -4.583,-13.461c-1.718,-6.444 -5.584,-29.356 -5.584,-38.664c0,-7.446 1.432,-12.459 6.157,-12.459c7.16,0 16.755,8.449 16.755,17.328c0,1.861 -0.287,2.864 -2.292,4.439c-2.148,1.432 -7.16,4.01 -10.883,5.585l1.146,2.864c6.587,-1.575 11.026,-1.146 15.179,-1.575c5.299,-0.573 7.16,-2.435 7.16,-7.16c0,-13.604 -12.315,-26.779 -26.062,-26.779c-8.163,0 -12.602,6.158 -12.602,20.621c0,11.313 4.726,35.8 4.726,43.103c0,6.015 -2.148,8.306 -5.872,10.168c-5.155,2.864 -15.895,5.298 -27.637,5.298c-14.75,0 -25.061,-0.716 -25.061,-9.881c0,-3.437 0.716,-8.305 2.005,-13.89c6.587,-4.869 8.449,-15.609 8.449,-25.776c0,-4.296 -1.146,-7.16 -3.007,-9.165c0.716,-5.871 1.432,-12.459 2.148,-18.33c9.881,-2.148 17.614,-5.012 20.334,-6.014c5.299,-2.148 8.306,-3.724 8.306,-6.301c0,-3.723 -4.439,-4.01 -7.59,-4.01c-3.15,0 -6.444,4.153 -19.905,7.733c0.43,-4.01 1.003,-7.303 1.289,-9.165c0.859,-4.153 2.291,-4.582 2.291,-7.446c0,-2.864 -9.021,-5.585 -13.317,-5.585c-2.721,0 -5.155,0.429 -8.163,1.289c0,0 0.144,2.148 0.144,2.72c2.148,0.43 5.728,1.146 7.589,2.148c2.435,1.146 3.007,2.292 3.007,5.585c0,2.435 -0.143,6.874 -0.429,12.316c-4.439,1.002 -9.595,1.861 -14.893,1.861c-6.301,0 -9.451,-0.429 -17.184,-8.449l-2.435,1.432Z" style="fill-rule:nonzero;"/><g><path d="M196.456,168.512c-2.776,-1.05 -3.827,-1.838 -3.827,-3.751c0,-1.838 1.388,-3.113 4.127,-3.113c1.089,0 2.139,0.262 3.152,0.825l0.676,3.338l1.645,0l0.15,-4.051c-1.795,-1.047 -3.446,-1.608 -5.623,-1.608c-4.426,0 -6.86,2.546 -6.86,5.472c0,2.775 1.947,4.351 4.947,5.439l1.876,0.712c2.739,1.013 3.902,1.951 3.902,3.789c0,2.026 -1.576,3.413 -4.915,3.413c-1.388,0 -2.514,-0.262 -3.527,-0.712l-0.825,-3.639l-1.795,0l0.15,4.389c1.983,0.934 3.746,1.458 5.997,1.458c5.102,0 7.686,-2.696 7.686,-5.659c0,-2.513 -1.498,-4.314 -5.472,-5.777l-1.464,-0.525Z" style="fill-rule:nonzero;"/><path d="M225.029,178.265c-0.037,-2.063 -0.075,-4.914 -0.075,-6.865l0,-3.901c0,-5.326 -1.722,-7.347 -5.134,-7.347c-2.589,0 -5.44,1.535 -7.616,3.934l0,-8.284l0.15,-5.775l-0.562,-0.337l-5.733,1.575l0,1.162l3.412,0.3l0,18.673c0,1.913 -0.037,4.802 -0.075,6.865l-3.225,0.487l0,1.196l9.184,0l0,-1.196l-2.963,-0.45c-0.038,-2.1 -0.075,-4.989 -0.075,-6.902l0,-5.926c2.438,-2.326 4.352,-3.001 6.227,-3.001c2.439,0 3.602,1.275 3.602,5.176l0,3.751c0,1.951 -0.037,4.802 -0.075,6.902l-3.189,0.45l0,1.196l9.147,0l0,-1.196l-3,-0.487Z" style="fill-rule:nonzero;"/><path d="M235.494,155.085c1.349,0 2.398,-0.936 2.398,-2.285c0,-1.386 -1.049,-2.285 -2.398,-2.285c-1.311,0 -2.36,0.899 -2.36,2.285c0,1.349 1.049,2.285 2.36,2.285Zm1.573,23.18c-0.038,-2.063 -0.075,-4.95 -0.075,-6.863l0,-5.512l0.112,-5.325l-0.562,-0.375l-5.883,1.95l0,1.237l3.45,0.225c0.075,1.875 0.075,3.375 0.075,5.7l0,2.1c0,1.913 -0.038,4.8 -0.075,6.863l-3.225,0.487l0,1.196l9.145,0l0,-1.196l-2.962,-0.487Z" style="fill-rule:nonzero;"/><path d="M248.917,160.565l-0.524,-0.375l-5.397,1.985l0,1.199l3.338,0.262c0.075,1.762 0.15,3.3 0.15,5.701l0,2.063c0,1.913 -0.038,4.802 -0.113,6.902l-3.075,0.45l0,1.196l9.558,0l0,-1.196l-3.45,-0.487c-0.037,-2.101 -0.075,-4.952 -0.075,-6.865l0,-3.414c0.938,-2.588 2.138,-4.313 3.9,-5.474l0.525,0.45c0.75,0.636 1.463,1.086 2.4,1.086c1.463,0 2.1,-0.937 2.1,-2.547c-0.412,-0.824 -1.65,-1.349 -2.85,-1.349c-2.362,0 -4.762,2.023 -6.112,5.321l-0.375,-4.908Z" style="fill-rule:nonzero;"/><path d="M271.684,175.677c-2.402,1.913 -3.49,2.588 -5.066,2.588c-2.026,0 -3.451,-1.013 -3.451,-3.264c0,-1.5 0.675,-3.075 4.314,-4.463c1.013,-0.413 2.664,-0.938 4.203,-1.351l0,6.49Zm6.145,2.063c-0.562,0.6 -1.012,0.9 -1.687,0.9c-1.013,0 -1.613,-0.675 -1.613,-2.851l0,-8.89c0,-4.876 -2.022,-6.747 -6.185,-6.747c-3.977,0 -6.9,1.833 -7.686,4.909c0.075,0.9 0.711,1.426 1.647,1.426c0.974,0 1.537,-0.563 1.837,-1.651l0.826,-2.776c0.975,-0.337 1.838,-0.412 2.626,-0.412c2.852,0 4.09,1.013 4.09,5.139l0,1.2c-1.726,0.375 -3.527,0.9 -4.991,1.35c-5.099,1.838 -6.559,3.676 -6.559,6.19c0,3.224 2.396,4.946 5.396,4.946c2.439,0 3.94,-1.085 6.229,-3.408c0.337,2.061 1.535,3.333 3.445,3.333c1.313,0 2.363,-0.524 3.263,-1.871l-0.638,-0.787Z" style="fill-rule:nonzero;"/><path d="M288.256,172.19c-2.701,0 -4.352,-2.139 -4.352,-5.327c0,-3.189 1.726,-5.365 4.465,-5.365c2.739,0 4.352,2.138 4.352,5.252c0,3.189 -1.688,5.44 -4.465,5.44Zm3.415,8.245c2.997,0 4.125,1.426 4.125,3.302c0,2.477 -2.476,4.503 -7.164,4.503c-3.414,0 -5.628,-1.276 -5.628,-4.053c0,-1.538 0.6,-2.626 1.876,-3.864c0.6,0.075 1.238,0.112 1.988,0.112l4.803,0Zm6.896,-19.833l-0.633,-0.412l-4.651,1.466c-1.275,-0.98 -2.963,-1.504 -4.914,-1.504c-4.165,0 -7.235,2.434 -7.235,6.673c0,2.739 1.198,4.69 3.108,5.776c-1.985,1.797 -2.733,3.109 -2.733,4.459c0,1.538 0.973,2.55 2.62,3c-2.81,1.351 -3.933,2.814 -3.933,4.615c0,3.04 2.696,5.098 8.398,5.098c6.486,0 9.748,-3.409 9.748,-6.899c0,-3.225 -2.022,-4.984 -6.183,-4.984l-5.516,0c-2.101,0 -2.739,-0.826 -2.739,-1.99c0,-1.013 0.45,-1.839 1.276,-2.888c0.938,0.336 1.988,0.523 3.151,0.523c4.128,0 7.161,-2.431 7.161,-6.702c0,-1.648 -0.412,-2.996 -1.198,-4.045l4.273,0.037l0,-2.223Z" style="fill-rule:nonzero;"/><path d="M312.371,175.677c-2.401,1.913 -3.489,2.588 -5.065,2.588c-2.026,0 -3.452,-1.013 -3.452,-3.264c0,-1.5 0.675,-3.075 4.315,-4.463c1.013,-0.413 2.664,-0.938 4.202,-1.351l0,6.49Zm6.146,2.063c-0.563,0.6 -1.013,0.9 -1.688,0.9c-1.012,0 -1.612,-0.675 -1.612,-2.851l0,-8.89c0,-4.876 -2.022,-6.747 -6.185,-6.747c-3.977,0 -6.9,1.833 -7.687,4.909c0.075,0.9 0.712,1.426 1.648,1.426c0.974,0 1.536,-0.563 1.837,-1.651l0.825,-2.776c0.976,-0.337 1.839,-0.412 2.626,-0.412c2.852,0 4.09,1.013 4.09,5.139l0,1.2c-1.726,0.375 -3.527,0.9 -4.99,1.35c-5.1,1.838 -6.56,3.676 -6.56,6.19c0,3.224 2.397,4.946 5.397,4.946c2.439,0 3.939,-1.085 6.228,-3.408c0.337,2.061 1.535,3.333 3.446,3.333c1.312,0 2.362,-0.524 3.262,-1.871l-0.637,-0.787Z" style="fill-rule:nonzero;"/><path d="M351.779,178.265c-0.037,-2.063 -0.075,-4.914 -0.075,-6.865l0,-4.201c0,-5.063 -1.909,-7.047 -5.134,-7.047c-2.626,0 -5.29,1.273 -7.465,3.934c-0.637,-2.773 -2.247,-3.934 -4.76,-3.934c-2.476,0 -5.102,1.497 -7.241,3.859l-0.299,-3.446l-0.524,-0.375l-5.397,1.983l0,1.2l3.337,0.263c0.075,1.725 0.15,3.3 0.15,5.701l0,2.063c0,1.913 -0.037,4.802 -0.112,6.902l-3.15,0.45l0,1.196l9.147,0l0,-1.196l-2.964,-0.487c-0.038,-2.063 -0.075,-4.952 -0.075,-6.865l0,-5.964c2.326,-2.138 4.089,-2.926 5.928,-2.926c2.326,0 3.489,1.313 3.489,5.139l0,3.751c0,1.951 -0.038,4.839 -0.075,6.902l-3.189,0.45l0,1.196l9.111,0l0,-1.196l-2.964,-0.487c-0.038,-2.063 -0.075,-4.914 -0.075,-6.865l0,-3.901c0,-0.713 -0.038,-1.388 -0.113,-1.988c2.326,-2.288 4.202,-3.001 5.965,-3.001c2.364,0 3.602,1.163 3.602,5.064l0,3.826c0,1.951 -0.037,4.802 -0.075,6.902l-3.189,0.45l0,1.196l9.11,0l0,-1.196l-2.963,-0.487Z" style="fill-rule:nonzero;"/><path d="M361.004,168.668c0.45,-4.768 3.189,-7.02 5.928,-7.02c2.888,0 4.877,2.365 4.877,4.993c0,1.201 -0.376,2.027 -2.026,2.027l-8.779,0Zm13.35,1.47c0.188,-0.565 0.263,-1.357 0.263,-2.333c0,-4.693 -3.146,-7.653 -7.498,-7.653c-4.952,0 -9.185,4.011 -9.185,10.286c0,6.404 3.783,10.035 9.035,10.035c3.489,0 6.075,-1.721 7.61,-4.418l-0.786,-0.599c-1.46,1.76 -3.222,2.921 -5.886,2.921c-3.977,0 -6.903,-2.734 -6.94,-8.277l13.387,0.038Z" style="fill-rule:nonzero;"/><path d="M1.017,169.731l166.92,0" style="fill:none;stroke:#868080;stroke-width:2.04px;"/><path d="M396.239,169.731l166.919,0" style="fill:none;stroke:#868080;stroke-width:2.04px;"/></g></g></svg>